<svg width="51" height="50" viewBox="0 0 51 50" fill="none" xmlns="http://www.w3.org/2000/svg">
<g clip-path="url(#clip0)">
<path d="M25.4754 0.267761L47.5711 12.613V37.3035L25.4754 49.6487L3.37964 37.3035V12.613L25.4754 0.267761Z" fill="white"/>
<path d="M43.6256 36.4515L26.2047 46.1836V38.6037L37.0589 32.7068L43.6256 36.4515ZM44.8173 35.3857V15.0326L38.4422 18.6662V31.748L44.8173 35.3857ZM7.25466 36.4515L24.6755 46.1836V38.6037L13.8213 32.7068L7.25466 36.4515ZM6.06299 35.3857V15.0326L12.438 18.6662V31.748L6.06299 35.3857ZM6.80882 13.7158L24.6755 3.73267V11.0616L13.2297 17.2794L13.1422 17.3288L6.80882 13.7158ZM44.0714 13.7158L26.2047 3.73267V11.0616L37.6506 17.2794L37.7381 17.3288L44.0714 13.7158Z" fill="#8ED6FB"/>
<path d="M24.6754 36.8795L13.9672 31.0649V19.5427L24.6754 25.6495V36.8795ZM26.2046 36.8795L36.9129 31.0649V19.5427L26.2046 25.6495V36.8795ZM14.6922 18.2095L25.4421 12.3702L36.1921 18.2095L25.4421 24.3409L14.6922 18.2095Z" fill="#1C78C0"/>
</g>
<defs>
<clipPath id="clip0">
<rect width="50" height="49.3809" fill="white" transform="translate(0.475464 0.267761)"/>
</clipPath>
</defs>
</svg>
