<svg width="35" height="96" viewBox="0 0 35 96" fill="none" xmlns="http://www.w3.org/2000/svg">
<g clip-path="url(#clip0)">
<path d="M27.0442 72.3689L27.7633 60.5345L29.749 57.1869C29.749 57.1869 25.2296 59.0128 17.6635 59.0128C10.0972 59.0128 5.64636 57.2207 5.64636 57.2207L7.87171 60.8724L8.65895 72.3689C8.65895 73.6014 12.7745 74.6005 17.8516 74.6005C22.9284 74.6005 27.0442 73.6014 27.0442 72.3689ZM24.7758 17.104L26.2852 11.2117L34.644 2.52522L32.4409 0.671997L23.5914 9.92528L21.8388 16.9651C20.5198 16.9214 19.2001 16.8997 17.8804 16.9C8.56023 16.9 1.0047 17.9491 1.0047 19.2428C1.0047 20.5367 8.56023 21.5856 17.8804 21.5856C27.2004 21.5856 34.7558 20.5367 34.7558 19.2428C34.7558 18.2901 30.6581 17.4701 24.7758 17.104Z" fill="#D34A47"/>
<path d="M23.8977 20.4035C23.8977 20.4035 23.5708 20.4758 22.6091 20.4799C21.6473 20.4838 20.9643 20.4737 20.6923 20.229C20.6192 20.1633 20.5791 20.0329 20.5795 19.9446C20.5803 19.7764 20.7012 19.6774 20.8551 19.6153L21.0008 19.8409C20.9374 19.8625 20.9013 19.888 20.9011 19.9152C20.9006 20.043 21.8846 20.1304 22.6372 20.1209C23.39 20.1118 24.2995 20.0505 24.3003 19.9247C24.3003 19.8866 24.2316 19.8507 24.1119 19.8225L24.2569 19.5984C24.4519 19.6582 24.6222 19.7738 24.6218 19.9737C24.6199 20.3137 24.1819 20.3654 23.8977 20.4035Z" fill="white"/>
<path d="M34.6274 2.54221C34.8376 2.30246 34.5186 1.68921 33.9151 1.17268C33.3112 0.656403 32.6513 0.432095 32.4408 0.671845C32.2305 0.911595 32.5496 1.52484 33.1534 2.04112C33.757 2.55752 34.4171 2.78209 34.6274 2.54221ZM26.6421 43.4621C26.444 41.5797 30.8111 38.8535 29.6903 38.7662C27.2776 38.9024 26.0768 41.5587 24.8629 44.3407C24.418 45.3603 22.8959 49.708 21.8976 49.1727C20.8995 48.6377 23.1915 45.0625 23.8339 42.9393C23.0927 43.4761 20.3743 45.5621 19.6737 43.6086C18.5474 44.5533 16.1406 45.0651 16.4121 42.5835C15.8129 43.6318 14.4681 45.0952 12.8539 44.4871C10.734 43.6887 14.0822 37.0195 14.9148 37.356C15.7475 37.6923 14.7468 39.2116 14.4847 39.8015C13.9082 41.0998 13.2424 42.732 13.6872 43.0661C14.4493 43.6386 16.523 40.9007 16.5692 40.8405C16.957 40.3344 18.062 37.0236 18.9526 37.4037C19.8432 37.7839 16.7312 42.1553 17.8948 43.0228C18.1294 43.1979 19.0896 42.9149 19.6737 42.2907C20.0516 41.887 19.9216 40.9928 21.1814 38.0258C22.4411 35.0588 23.5639 31.3639 24.4278 31.6454C25.2918 31.9268 24.5797 33.8232 24.2698 34.5301C22.8153 37.8482 20.3003 43.3298 21.4864 42.9149C22.6725 42.5 23.2901 42.4757 24.4516 41.1334C25.613 39.791 25.5595 37.58 26.3336 37.627C27.108 37.6741 26.978 38.383 26.7902 38.9229C27.5521 38.0617 30.4019 36.2482 31.0899 38.0443C31.9048 40.1708 27.0127 43.2424 28.2324 43.0858C29.4217 42.933 31.3484 41.7279 32.171 40.6321L34.4353 20.5274C34.4353 20.5274 32.1568 22.3896 17.6612 22.3896C3.16537 22.3896 1.12262 20.5661 1.12262 20.5661L3.05036 38.917C4.07359 36.0448 6.5034 30.2353 10.3334 30.4303C12.0757 30.519 14.4014 33.8322 12.4092 33.9445C11.5659 33.9919 11.4803 32.2907 10.4817 32.0409C9.76113 31.8606 8.7579 32.4391 8.10954 33.066C6.81652 34.3158 4.03556 39.2468 4.403 41.7051C4.87116 44.8393 8.78215 40.616 9.4439 39.3622C9.90993 38.479 10.2248 35.8621 11.244 36.1367C12.2634 36.4112 11.1551 39.1118 10.4162 41.4995C9.58621 44.1806 9.14986 47.0088 8.10954 46.6835C7.06908 46.3584 8.76386 42.8972 8.70251 42.2907C7.7246 43.1818 5.92301 45.4377 3.61816 44.3212L4.81537 55.7169C4.81537 55.7169 7.9973 58.1998 17.5826 58.1998C27.1679 58.1998 30.4676 55.7556 30.4676 55.7556L31.9542 42.5567C30.7379 43.7264 26.8885 45.8035 26.6421 43.4621Z" fill="#D34A47"/>
</g>
<path d="M10.858 85.7744H13.45V89.4944C13.154 89.7744 12.806 89.9784 12.406 90.1064C12.014 90.2264 11.622 90.2864 11.23 90.2864C10.758 90.2864 10.33 90.2024 9.94605 90.0344C9.56205 89.8664 9.23405 89.6064 8.96205 89.2544C8.69805 88.8944 8.49005 88.4424 8.33805 87.8984C8.19405 87.3464 8.12205 86.6864 8.12205 85.9184C8.12205 85.1184 8.21005 84.4424 8.38605 83.8904C8.56205 83.3384 8.79405 82.8904 9.08205 82.5464C9.37805 82.1944 9.71805 81.9424 10.102 81.7904C10.494 81.6304 10.906 81.5504 11.338 81.5504C11.722 81.5504 12.07 81.5864 12.382 81.6584C12.702 81.7224 12.966 81.7984 13.174 81.8864L12.862 83.1944C12.702 83.1224 12.514 83.0624 12.298 83.0144C12.09 82.9664 11.834 82.9424 11.53 82.9424C11.25 82.9424 10.994 82.9984 10.762 83.1104C10.538 83.2224 10.346 83.3984 10.186 83.6384C10.034 83.8784 9.91405 84.1904 9.82605 84.5744C9.74605 84.9504 9.70605 85.4024 9.70605 85.9304C9.70605 86.9464 9.85805 87.6944 10.162 88.1744C10.474 88.6544 10.882 88.8944 11.386 88.8944C11.546 88.8944 11.698 88.8704 11.842 88.8224C11.994 88.7744 12.126 88.6984 12.238 88.5944V86.8784L10.858 86.6864V85.7744ZM15.6935 84.1184V87.7064C15.6935 88.1784 15.7375 88.5064 15.8255 88.6904C15.9135 88.8744 16.0735 88.9664 16.3055 88.9664C16.5295 88.9664 16.7175 88.8864 16.8695 88.7264C17.0215 88.5584 17.1295 88.3584 17.1935 88.1264V84.1184H18.6215V88.2944C18.6215 88.6224 18.6335 88.9464 18.6575 89.2664C18.6815 89.5784 18.7255 89.8624 18.7895 90.1184H17.7095L17.4575 89.3024H17.4215C17.2695 89.5824 17.0615 89.8144 16.7975 89.9984C16.5415 90.1824 16.2215 90.2744 15.8375 90.2744C15.5895 90.2744 15.3695 90.2384 15.1775 90.1664C14.9855 90.1024 14.8215 89.9864 14.6855 89.8184C14.5495 89.6504 14.4455 89.4224 14.3735 89.1344C14.3015 88.8384 14.2655 88.4664 14.2655 88.0184V84.1184H15.6935ZM21.121 88.1744C21.121 88.4544 21.149 88.6544 21.205 88.7744C21.261 88.8944 21.353 88.9544 21.481 88.9544C21.553 88.9544 21.625 88.9464 21.697 88.9304C21.777 88.9144 21.865 88.8864 21.961 88.8464L22.093 89.9984C21.997 90.0624 21.833 90.1224 21.601 90.1784C21.369 90.2344 21.133 90.2624 20.893 90.2624C20.493 90.2624 20.193 90.1624 19.993 89.9624C19.793 89.7624 19.693 89.4224 19.693 88.9424V81.7184H21.121V88.1744ZM22.5869 84.1184H23.6549L23.7989 84.8024H23.8349C24.0189 84.5144 24.2229 84.3064 24.4469 84.1784C24.6789 84.0424 24.9629 83.9744 25.2989 83.9744C25.9069 83.9744 26.3629 84.2064 26.6669 84.6704C26.9789 85.1264 27.1349 85.8904 27.1349 86.9624C27.1349 88.0344 26.9429 88.8584 26.5589 89.4344C26.1749 90.0024 25.6189 90.2864 24.8909 90.2864C24.6989 90.2864 24.5349 90.2704 24.3989 90.2384C24.2629 90.2064 24.1349 90.1544 24.0149 90.0824V92.5184H22.5869V84.1184ZM24.0149 88.7744C24.0949 88.8544 24.1829 88.9144 24.2789 88.9544C24.3829 88.9944 24.5149 89.0144 24.6749 89.0144C24.9949 89.0144 25.2389 88.8584 25.4069 88.5464C25.5749 88.2264 25.6589 87.6864 25.6589 86.9264C25.6589 86.3584 25.5949 85.9384 25.4669 85.6664C25.3389 85.3864 25.1269 85.2464 24.8309 85.2464C24.4309 85.2464 24.1589 85.4824 24.0149 85.9544V88.7744Z" fill="black"/>
<defs>
<clipPath id="clip0">
<rect width="33.93" height="74.0713" fill="white" transform="translate(0.902771 0.554871)"/>
</clipPath>
</defs>
</svg>
