<svg width="51" height="71" viewBox="0 0 51 71" fill="none" xmlns="http://www.w3.org/2000/svg">
<path d="M50.5519 13.9749H0L4.73924 64.5289L25.2731 70.2577L45.807 64.5289L50.5519 13.9749Z" fill="#E6A329"/>
<path d="M25.2731 18.0937V65.9737L41.9102 61.3369L45.9578 18.0937H25.2731Z" fill="#F1BF22"/>
<path d="M38.5088 24.2957H12.9283L11.1465 43.2237L11.1835 43.1061H32.9157L32.2069 51.1141L25.2731 53.0769L18.2368 51.0833L17.8156 46.2365H11.4283L12.3391 55.9217L25.2731 59.5337L38.2128 55.9217L39.9946 36.9125H16.9303L17.2264 30.5789H33.2288L33.4679 34.2077H39.9121L38.5088 24.2957Z" fill="white"/>
<path d="M25.2789 24.2957H12.9283L11.1465 43.2237L11.1835 43.1061H25.2789V36.9321H17.8298L18.1259 30.5985H25.2789V24.2957ZM17.8298 46.2365H11.4283L12.3391 55.9161L25.2732 59.5225V53.0825L18.2369 51.0833L17.8298 46.2365Z" fill="#EBEBEB"/>
<path d="M20.3574 6.51849H15.8572V9.69649H23.5767V0.25769H20.3574V6.51849ZM34.6918 0.30809H26.8472V3.61209C27.8946 4.64249 28.4411 5.13809 29.9839 6.63049H26.8472V9.64329H34.6918V6.63609L31.5551 3.61769H34.6918V0.30809Z" fill="#231F20"/>
</svg>
