<svg width="38" height="57" viewBox="0 0 38 57" fill="none" xmlns="http://www.w3.org/2000/svg">
<g clip-path="url(#clip0)">
<path d="M31.2556 47.4123L31.4206 47.3653L31.436 47.1944L34.3867 14.4605L34.4113 14.1881H34.1378H3.3132H3.04012L3.06418 14.4601L5.95877 47.1939L5.97393 47.3654L6.13953 47.4124L18.6572 50.9655L18.7256 50.985L18.794 50.9655L31.2556 47.4123ZM18.9346 28.9211V28.9108H29.3602L29.2341 29.8687L29.2338 29.8687L29.2329 29.8796L28.1508 42.2421L28.0819 42.9023L18.6642 45.4964L18.6502 45.5002L9.25118 42.9088L8.709 35.9661H12.8556L13.1672 39.4751L13.1826 39.6488L13.3509 39.6943L18.5785 41.1084L18.6106 41.1171H18.6438H18.6846H18.9346V41.0483L23.9775 39.6841L24.1445 39.6389L24.1611 39.4667L24.7431 33.4172L24.7694 33.1433H24.4942H18.7306H18.4806V33.1484H8.41718L7.27893 20.4371L7.21103 19.4664H18.6846H30.2093L30.1415 20.4356L29.8969 22.8413L29.8968 22.8413L29.8965 22.8449L29.8296 23.6121H12.0838H11.811L11.8347 23.8837L12.2533 28.6927L12.2732 28.9211H12.5024H18.6846H18.9346ZM3.60323 49.3268L0.273075 11.6556H37.1825L33.7868 49.3269L18.7253 53.6201L3.60323 49.3268Z" fill="#FED501" stroke="#181F29" stroke-width="0.5"/>
<path d="M11.47 2V9H9.11V6.42H6.93V9H4.57V2H6.93V4.48H9.11V2H11.47ZM14.1271 3.83H12.0771V2H18.5371V3.83H16.4871V9H14.1271V3.83ZM25.4001 9L25.3801 5.81L23.8601 8.37H22.8201L21.3001 5.92V9H19.1501V2H21.0901L23.3701 5.73L25.5901 2H27.5301L27.5501 9H25.4001ZM28.6911 2H31.0511V7.17H34.2111V9H28.6911V2Z" fill="#FED501"/>
</g>
<defs>
<clipPath id="clip0">
<rect width="37.7452" height="56.88" fill="white" transform="translate(0.230469)"/>
</clipPath>
</defs>
</svg>
