<svg width="51" height="71" viewBox="0 0 51 71" fill="none" xmlns="http://www.w3.org/2000/svg">
<path d="M4.69763 0.679932H7.89426V3.79712H10.8407V0.679932H14.0373V10.1135H10.8407V6.96899H7.92206V10.1135H4.69763V0.679932ZM18.2625 3.82446H15.4411V0.679932H24.2944V3.82446H21.4591V10.1135H18.2625V3.82446ZM25.6981 0.679932H29.0476L31.1046 4.0022L33.1615 0.679932H36.511V10.1135H33.3144V5.43774L31.0768 8.82837L28.8391 5.43774V10.1135H25.6981V0.679932ZM38.0955 0.679932H41.2921V6.99634H45.823V10.1135H38.0955" fill="black"/>
<path d="M4.58647 65.0745L0 14.4338H50.4234L45.8369 65.0471L25.17 70.6799" fill="#E44D26"/>
<path d="M25.2117 66.3733V18.5901H45.823L41.8897 61.7932" fill="#F16529"/>
<path d="M9.36755 24.7834H25.2117V30.9905H16.289L16.8727 37.3479H25.2117V43.5413H11.091L9.36755 24.7834ZM11.3689 46.6585H17.7066L18.1513 51.6214L25.2117 53.4807V59.9612L12.2584 56.4065" fill="#EBEBEB"/>
<path d="M41.0003 24.7834H25.1839V30.9905H40.4166L41.0003 24.7834ZM39.8467 37.3479H25.1839V43.555H32.967L32.2304 51.6214L25.1839 53.4807V59.9339L38.1094 56.4065" fill="white"/>
</svg>
