<svg width="45" height="45" viewBox="0 0 45 45" fill="none" xmlns="http://www.w3.org/2000/svg">
<path d="M1 1H44V44H1V1Z" stroke="#FED501" stroke-width="2"/>
<path d="M11.8337 37.6045L15.2772 35.5204C15.9417 36.6983 16.546 37.695 17.9957 37.695C19.3852 37.695 20.2615 37.1515 20.2615 35.0372V20.6586H24.4903V35.097C24.4903 39.4769 21.9228 41.4706 18.1769 41.4706C14.794 41.4706 12.8304 39.7186 11.8335 37.6041L11.8337 37.6045ZM26.7872 37.1513L30.2304 35.1578C31.1369 36.638 32.315 37.7254 34.3991 37.7254C36.1514 37.7254 37.2687 36.8493 37.2687 35.641C37.2687 34.1911 36.1208 33.6775 34.1876 32.832L33.1306 32.3785C30.0796 31.08 28.0558 29.4487 28.0558 26.0052C28.0558 22.8334 30.4723 20.4167 34.2482 20.4167C36.9366 20.4167 38.8699 21.3533 40.2593 23.8L36.9665 25.9147C36.2414 24.6158 35.4564 24.1024 34.2481 24.1024C33.0095 24.1024 32.2241 24.8877 32.2241 25.9147C32.2241 27.1833 33.0095 27.6971 34.8218 28.4825L35.879 28.9355C39.4737 30.4762 41.4975 32.0468 41.4975 35.5807C41.4975 39.3871 38.5071 41.4711 34.4896 41.4711C30.5628 41.4711 28.0256 39.5982 26.7872 37.1513Z" fill="#FED501"/>
</svg>
