<svg width="71" height="31" viewBox="0 0 71 31" fill="none" xmlns="http://www.w3.org/2000/svg">
<g clip-path="url(#clip0)">
<path d="M65.8385 24.7263C65.8385 27.8411 63.1963 30.3894 59.9669 30.3894H10.615C7.38559 30.3894 4.74341 27.8411 4.74341 24.7263V6.69146C4.74341 3.57697 7.38559 1.02838 10.615 1.02838H59.9669C63.1963 1.02838 65.8385 3.57697 65.8385 6.69146V24.7263Z" fill="url(#paint0_linear)"/>
<mask id="mask0" mask-type="alpha" maskUnits="userSpaceOnUse" x="0" y="0" width="71" height="31">
<path d="M0.335815 0.958496H70.1376V30.4534H0.335815" fill="white"/>
</mask>
<g mask="url(#mask0)">
<path fill-rule="evenodd" clip-rule="evenodd" d="M67.157 11.7147C67.157 9.50686 67.5009 8.20482 67.5009 5.82727C67.5009 2.14741 66.125 0.958496 63.0871 0.958496H60.8515V3.56257H61.5394C63.0871 3.56257 63.431 4.07218 63.431 5.9404C63.431 7.69521 63.2589 9.4503 63.2589 11.4885C63.2589 14.0925 64.1188 15.1115 65.8384 15.5077V15.6777C64.1188 16.0739 63.2589 17.0931 63.2589 19.6972C63.2589 21.7351 63.431 23.377 63.431 25.2453C63.431 27.17 63.0298 27.6794 61.5394 27.6794V27.7359H60.8515V30.4534H63.0871C66.125 30.4534 67.5009 29.2645 67.5009 25.5849C67.5009 23.1505 67.157 21.905 67.157 19.6972C67.157 18.5083 67.9021 17.2628 70.1376 17.1497V14.2057C67.9021 14.1491 67.157 12.9036 67.157 11.7147ZM41.7634 15.1681C39.9863 14.4888 38.3813 14.0925 38.3813 12.9602C38.3813 12.1112 39.0691 11.6016 40.3302 11.6016C41.5913 11.6016 42.7378 12.1112 43.9989 13.017L46.2917 10.0165C44.8586 8.94096 42.9097 7.80861 40.2729 7.80861C36.3751 7.80861 33.7381 10.0165 33.7381 13.1302C33.7381 15.9042 36.203 17.3194 38.2667 18.1121C40.0436 18.7914 41.7634 19.3575 41.7634 20.4896C41.7634 21.3389 41.0753 21.905 39.5278 21.905C38.0947 21.905 36.6617 21.3389 35.114 20.15L32.8785 23.4336C34.598 24.8488 37.2347 25.8112 39.413 25.8112C43.9989 25.8112 46.4636 23.4336 46.4636 20.3199C46.4636 17.2062 43.9989 15.9042 41.7634 15.1681ZM55.6351 15.1681C53.9156 14.4888 52.3106 14.0925 52.3106 12.9602C52.3106 12.1112 52.9984 11.6016 54.2595 11.6016C55.5205 11.6016 56.6671 12.1112 57.9282 13.017L60.221 10.0165C58.7878 8.94096 56.8389 7.80861 54.2022 7.80861C50.3041 7.80861 47.6674 10.0165 47.6674 13.1302C47.6674 15.9042 50.1323 17.3194 52.1957 18.1121C53.9728 18.7914 55.6924 19.3575 55.6924 20.4896C55.6924 21.3389 55.0046 21.905 53.4568 21.905C52.0239 21.905 50.5907 21.3389 49.0433 20.15L46.7502 23.4336C48.47 24.8488 51.1067 25.8112 53.285 25.8112C57.8706 25.8112 60.3355 23.4336 60.3355 20.3199C60.3355 17.2062 57.8706 15.9042 55.6351 15.1681ZM21.5859 14.885C21.9299 12.6205 23.3055 11.545 24.9105 11.545C26.9742 11.545 27.7768 12.9602 27.7768 14.885H21.5859ZM32.1331 15.9042C32.1904 11.3185 29.6682 7.75204 24.8532 7.75204C20.6688 7.75204 16.6564 11.2054 16.7709 16.6401C16.7709 22.2447 20.4969 25.5281 25.4265 25.5281C27.4902 25.5281 29.783 24.7922 31.5598 23.6033L29.8403 20.603C28.5792 21.3389 27.3754 21.6785 26.1143 21.6785C23.8215 21.6785 22.0444 20.603 21.5859 17.9987H31.9613C32.0186 17.6024 32.1331 16.81 32.1331 15.9042Z" fill="#FAF9F8"/>
<path fill-rule="evenodd" clip-rule="evenodd" d="M16.4843 21.5654C16.0831 21.5654 15.5671 21.2257 15.5671 20.15V0.958496H7.42728C4.33209 0.958496 2.95619 2.14741 2.95619 5.82727C2.95619 8.26138 3.30009 9.62026 3.30009 11.7147C3.30009 12.9036 2.555 14.1491 0.319458 14.2622V17.2062C2.555 17.2628 3.30009 18.5083 3.30009 19.6972C3.30009 21.7919 2.95619 23.0371 2.95619 25.4715C2.95619 29.1514 4.33209 30.3403 7.37 30.3403H9.60555V27.7359H8.91773C7.48482 27.7359 7.02609 27.17 7.02609 25.3018C7.02609 23.4336 7.19819 21.8485 7.19819 19.7537C7.19819 17.1497 6.33828 16.1304 4.61846 15.7342V15.5645C6.33828 15.1681 7.19819 14.1491 7.19819 11.545C7.19819 9.50686 7.02609 7.86517 7.02609 5.99696C7.02609 4.12875 7.42728 3.61941 8.91773 3.61941H10.4655V19.8669C10.4655 23.3202 11.6693 25.5849 15.1659 25.5849C16.2549 25.5849 17.1148 25.4149 17.7454 25.1884L17.1721 21.5088C16.8282 21.5654 16.6564 21.5654 16.4843 21.5654Z" fill="#FAF9F8"/>
</g>
</g>
<defs>
<linearGradient id="paint0_linear" x1="35.2909" y1="1.02838" x2="35.2909" y2="30.3894" gradientUnits="userSpaceOnUse">
<stop stop-color="#2E4F82"/>
<stop offset="1" stop-color="#182E4D"/>
</linearGradient>
<clipPath id="clip0">
<rect width="69.8324" height="29.6285" fill="white" transform="translate(0.312378 0.824402)"/>
</clipPath>
</defs>
</svg>
