<svg width="68" height="51" viewBox="0 0 68 51" fill="none" xmlns="http://www.w3.org/2000/svg">
<g clip-path="url(#clip0)">
<path d="M57.9016 29.1095C55.5709 29.1226 53.5527 29.6824 51.8599 30.5159C51.2349 29.2789 50.6099 28.198 50.5059 27.3909C50.3887 26.4534 50.2455 25.8803 50.3887 24.7607C50.5318 23.6407 51.1829 22.0522 51.1829 21.922C51.1697 21.8048 51.0395 21.2319 49.6985 21.2189C48.3575 21.2058 47.1985 21.4793 47.0683 21.8308C46.9381 22.1824 46.6777 22.9897 46.5084 23.823C46.274 25.047 43.8261 29.3829 42.4329 31.6616C41.9771 30.7761 41.5865 29.9949 41.5083 29.3698C41.3912 28.4324 41.2478 27.8593 41.3912 26.7397C41.5344 25.6198 42.1855 24.0314 42.1855 23.9011C42.1724 23.784 42.0422 23.211 40.7012 23.198C39.36 23.185 38.2012 23.4584 38.071 23.81C37.9408 24.1616 37.7976 24.9949 37.5111 25.8022C37.2376 26.6095 33.9823 33.8491 33.136 35.7371C32.7063 36.7006 32.3288 37.4688 32.0553 37.9897C31.7818 38.5105 32.0422 38.0287 32.0162 38.0808C31.7818 38.5235 31.6516 38.7709 31.6516 38.7709V38.7841C31.4693 39.1096 31.274 39.422 31.1827 39.422C31.1176 39.422 30.9874 38.5496 31.2088 37.3518C31.6906 34.8386 32.8624 30.9195 32.8495 30.7763C32.8495 30.7112 33.0708 30.0209 32.0942 29.6695C31.1437 29.3179 30.8053 29.9039 30.727 29.9039C30.6489 29.9039 30.5838 30.1122 30.5838 30.1122C30.5838 30.1122 31.6385 25.6983 28.5656 25.6983C26.6385 25.6983 23.9822 27.7946 22.6671 29.7087C21.8338 30.1644 20.063 31.1278 18.188 32.1566C17.4718 32.5472 16.7296 32.9639 16.0265 33.3415L15.8834 33.185C12.1594 29.2136 5.27143 26.4011 5.55788 21.0626C5.66205 19.1225 6.33913 14.0053 18.7872 7.80741C28.9825 2.72929 37.1465 4.12252 38.5657 7.22147C40.5839 11.6486 34.2037 19.8777 23.6049 21.0626C19.5684 21.5183 17.4459 19.9558 16.9122 19.3699C16.3523 18.7579 16.2742 18.7319 16.0658 18.8491C15.7273 19.0314 15.9356 19.5782 16.0658 19.9038C16.3783 20.7241 17.6804 22.1824 19.8939 22.9116C21.8339 23.5496 26.5736 23.9011 32.3028 21.6876C38.7221 19.2006 43.7351 12.2996 42.2637 6.53137C40.7663 0.658979 31.0268 -1.2681 21.821 2.00012C16.3391 3.95325 10.4016 7.00012 6.1308 10.9975C1.05268 15.7371 0.245387 19.8777 0.583928 21.5965C1.76895 27.7293 10.2193 31.7267 13.6048 34.6824C13.4355 34.7734 13.2792 34.8646 13.136 34.9428C11.4433 35.776 4.99799 39.1485 3.38341 42.7161C1.56049 46.7526 3.66986 49.6563 5.07611 50.047C9.42507 51.2579 13.8782 49.0834 16.287 45.5027C18.6827 41.922 18.3964 37.2735 17.2896 35.1511L17.2505 35.073L18.5786 34.2918C19.4381 33.784 20.2844 33.3152 21.0265 32.9114C20.61 34.0442 20.3104 35.3854 20.1542 37.3385C19.9719 39.6303 20.9094 42.5989 22.1464 43.7708C22.6933 44.2785 23.3443 44.2916 23.748 44.2916C25.1803 44.2916 25.8313 43.1066 26.5475 41.6875C27.4329 39.9557 28.2141 37.9505 28.2141 37.9505C28.2141 37.9505 27.2376 43.3802 29.9068 43.3802C30.8834 43.3802 31.86 42.1172 32.3027 41.4661V41.4791C32.3027 41.4791 32.3287 41.4401 32.3808 41.3489C32.4354 41.2681 32.4875 41.1857 32.537 41.1017V41.0756C32.9277 40.3985 33.8001 38.8491 35.1021 36.284C36.7817 32.9767 38.3964 28.836 38.3964 28.836C38.3964 28.836 38.5527 29.8517 39.0344 31.5183C39.3208 32.508 39.9458 33.5886 40.4275 34.6433C40.0369 35.1902 39.8025 35.5028 39.8025 35.5028L39.8155 35.5159C39.5032 35.9325 39.1515 36.3754 38.787 36.8179C37.4589 38.4065 35.8704 40.2165 35.662 40.7373C35.4146 41.3492 35.4667 41.8049 35.9485 42.1696C36.3001 42.43 36.9251 42.482 37.5891 42.43C38.787 42.3518 39.6204 42.0524 40.037 41.87C40.6881 41.6356 41.4303 41.2841 42.1464 40.7632C43.4485 39.7998 44.2428 38.4326 44.1646 36.6097C44.1256 35.6071 43.8001 34.6175 43.3964 33.68C43.5136 33.5108 43.6309 33.3414 43.748 33.1592C45.8053 30.1513 47.3938 26.8441 47.3938 26.8441C47.3938 26.8441 47.55 27.8597 48.0318 29.5264C48.2791 30.3728 48.774 31.2974 49.2167 32.2088C47.2896 33.7843 46.0787 35.6073 45.662 36.8052C44.8938 39.0187 45.4928 40.0213 46.6256 40.2557C47.1333 40.3599 47.8626 40.1255 48.4093 39.8911C49.0864 39.6698 49.9067 39.292 50.662 38.7323C51.9641 37.7687 53.2141 36.4276 53.149 34.6177C53.1099 33.7843 52.8886 32.964 52.5891 32.1828C54.2297 31.5057 56.352 31.1151 59.0474 31.4406C64.8417 32.1177 65.9875 35.7375 65.7663 37.2479C65.545 38.7584 64.334 39.5916 63.9303 39.852C63.5266 40.0994 63.3964 40.1907 63.4355 40.3729C63.4875 40.6464 63.6698 40.6333 64.0214 40.5813C64.5032 40.5031 67.0683 39.3444 67.1724 36.558C67.3287 32.9768 63.9303 29.0705 57.9016 29.1095V29.1095ZM13.2141 44.1746C11.3001 46.2709 8.60476 47.0652 7.45893 46.3881C6.22195 45.672 6.70359 42.586 9.06049 40.3595C10.4928 39.0053 12.3548 37.7553 13.5787 36.9871C13.8522 36.8178 14.2688 36.5705 14.7636 36.2709C14.8417 36.219 14.8938 36.1928 14.8938 36.1928C14.985 36.1407 15.0891 36.0756 15.1933 36.0105C16.0657 39.1876 15.2324 41.9741 13.2141 44.1746V44.1746ZM27.2115 34.6564C26.5475 36.284 25.1412 40.4636 24.2949 40.2293C23.5656 40.034 23.123 36.8699 24.1515 33.7449C24.6723 32.1692 25.7791 30.2944 26.4301 29.5651C27.485 28.3932 28.6307 28.0026 28.9172 28.4843C29.2558 29.1095 27.6282 33.6407 27.2115 34.6564ZM38.761 40.1772C38.4745 40.3205 38.2141 40.4246 38.0969 40.3466C38.0058 40.2945 38.214 40.0992 38.214 40.0992C38.214 40.0992 39.6593 38.5497 40.2322 37.8336C40.5577 37.417 40.9484 36.9353 41.365 36.3883V36.5445C41.3652 38.4194 39.5683 39.6694 38.761 40.1772ZM47.6671 38.1459C47.4588 37.9897 47.4849 37.5079 48.1879 35.9975C48.4615 35.3985 49.0864 34.3959 50.1671 33.4454C50.2973 33.836 50.3756 34.2135 50.3624 34.5652C50.3495 36.909 48.6829 37.7813 47.6671 38.1459Z" fill="#CF649A"/>
<g clip-path="url(#clip1)">
<path d="M57.8807 29.1081C55.5499 29.1212 53.5317 29.681 51.839 30.5145C51.214 29.2775 50.589 28.1966 50.485 27.3895C50.3678 26.452 50.2246 25.8789 50.3678 24.7592C50.5109 23.6393 51.1619 22.0508 51.1619 21.9206C51.1488 21.8034 51.0186 21.2305 49.6776 21.2175C48.3365 21.2044 47.1776 21.4779 47.0473 21.8294C46.9171 22.181 46.6567 22.9883 46.4875 23.8216C46.2531 25.0456 43.8052 29.3815 42.4119 31.6602C41.9562 30.7747 41.5656 29.9935 41.4873 29.3684C41.3703 28.431 41.2269 27.8579 41.3703 26.7383C41.5135 25.6184 42.1645 24.03 42.1645 23.8997C42.1515 23.7826 42.0213 23.2096 40.6803 23.1966C39.339 23.1836 38.1803 23.457 38.0501 23.8086C37.9199 24.1602 37.7766 24.9935 37.4902 25.8008C37.2166 26.6081 33.9614 33.8477 33.1151 35.7357C32.6854 36.6992 32.3079 37.4674 32.0343 37.9883C31.7609 38.5091 32.0213 38.0273 31.9953 38.0794C31.7609 38.5221 31.6307 38.7695 31.6307 38.7695V38.7827C31.4484 39.1082 31.2531 39.4206 31.1618 39.4206C31.0967 39.4206 30.9665 38.5482 31.1878 37.3504C31.6696 34.8372 32.8415 30.9181 32.8286 30.7749C32.8286 30.7098 33.0498 30.0195 32.0733 29.6681C31.1227 29.3165 30.7843 29.9025 30.7061 29.9025C30.628 29.9025 30.5628 30.1108 30.5628 30.1108C30.5628 30.1108 31.6175 25.6969 28.5446 25.6969C26.6175 25.6969 23.9613 27.7932 22.6462 29.7073C21.8129 30.163 20.042 31.1264 18.167 32.1552C17.4509 32.5458 16.7087 32.9625 16.0056 33.3401L15.8625 33.1836C12.1385 29.2122 5.25049 26.3997 5.53695 21.0612C5.64112 19.1211 6.3182 14.0039 18.7662 7.80601C28.9615 2.72789 37.1256 4.12111 38.5447 7.22007C40.563 11.6471 34.1828 19.8763 23.5839 21.0612C19.5475 21.5169 17.425 19.9544 16.8912 19.3685C16.3313 18.7565 16.2532 18.7305 16.0449 18.8477C15.7063 19.03 15.9147 19.5768 16.0449 19.9024C16.3574 20.7227 17.6595 22.181 19.873 22.9102C21.813 23.5482 26.5527 23.8997 32.2819 21.6862C38.7011 19.1992 43.7141 12.2982 42.2428 6.52997C40.7454 0.657575 31.0058 -1.26951 21.8001 1.99872C16.3182 3.95184 10.3807 6.99872 6.10987 10.9961C1.03174 15.7357 0.224452 19.8763 0.562993 21.5951C1.74802 27.7279 10.1984 31.7253 13.5838 34.681C13.4145 34.772 13.2583 34.8631 13.1151 34.9414C11.4224 35.7746 4.97705 39.1471 3.36247 42.7147C1.53956 46.7512 3.64893 49.6549 5.05518 50.0456C9.40414 51.2565 13.8573 49.082 16.2661 45.5013C18.6618 41.9206 18.3755 37.2721 17.2687 35.1497L17.2295 35.0716L18.5576 34.2904C19.4172 33.7826 20.2635 33.3138 21.0056 32.91C20.589 34.0428 20.2894 35.384 20.1333 37.3371C19.951 39.6289 20.8885 42.5975 22.1255 43.7694C22.6724 44.2771 23.3234 44.2902 23.727 44.2902C25.1593 44.2902 25.8104 43.1052 26.5265 41.6861C27.4119 39.9543 28.1932 37.9491 28.1932 37.9491C28.1932 37.9491 27.2166 43.3788 29.8859 43.3788C30.8625 43.3788 31.839 42.1157 32.2817 41.4647V41.4777C32.2817 41.4777 32.3078 41.4387 32.3599 41.3475C32.4145 41.2667 32.4666 41.1843 32.5161 41.1003V41.0742C32.9067 40.3971 33.7791 38.8477 35.0812 36.2826C36.7608 32.9753 38.3755 28.8346 38.3755 28.8346C38.3755 28.8346 38.5317 29.8503 39.0135 31.5169C39.2998 32.5066 39.9248 33.5872 40.4066 34.6419C40.016 35.1888 39.7816 35.5014 39.7816 35.5014L39.7946 35.5145C39.4822 35.9311 39.1306 36.374 38.7661 36.8165C37.438 38.4051 35.8494 40.2151 35.6411 40.7359C35.3937 41.3478 35.4458 41.8035 35.9276 42.1682C36.2791 42.4286 36.9041 42.4806 37.5682 42.4286C38.7661 42.3504 39.5994 42.051 40.0161 41.8686C40.6671 41.6342 41.4093 41.2827 42.1255 40.7618C43.4276 39.7984 44.2218 38.4312 44.1437 36.6083C44.1046 35.6057 43.7791 34.6161 43.3755 33.6786C43.4927 33.5094 43.61 33.34 43.727 33.1578C45.7843 30.1499 47.3729 26.8427 47.3729 26.8427C47.3729 26.8427 47.5291 27.8583 48.0109 29.525C48.2582 30.3714 48.7531 31.296 49.1958 32.2074C47.2687 33.7829 46.0578 35.6059 45.6411 36.8038C44.8729 39.0173 45.4718 40.0199 46.6046 40.2543C47.1123 40.3585 47.8416 40.1241 48.3884 39.8897C49.0654 39.6684 49.8858 39.2906 50.6411 38.7309C51.9432 37.7673 53.1932 36.4262 53.1281 34.6163C53.089 33.7829 52.8677 32.9626 52.5682 32.1814C54.2088 31.5043 56.3311 31.1137 59.0265 31.4392C64.8208 32.1163 65.9666 35.7361 65.7454 37.2465C65.524 38.757 64.3131 39.5902 63.9093 39.8506C63.5057 40.098 63.3755 40.1893 63.4145 40.3715C63.4666 40.645 63.6489 40.6319 64.0005 40.5799C64.4822 40.5017 67.0473 39.343 67.1515 36.5566C67.3078 32.9754 63.9093 29.0691 57.8807 29.1081V29.1081ZM13.1932 44.1732C11.2791 46.2695 8.58382 47.0638 7.43799 46.3867C6.20101 45.6706 6.68265 42.5846 9.03955 40.3581C10.4718 39.0039 12.3338 37.7539 13.5578 36.9857C13.8312 36.8164 14.2479 36.5691 14.7427 36.2695C14.8208 36.2176 14.8729 36.1914 14.8729 36.1914C14.964 36.1393 15.0682 36.0742 15.1724 36.0091C16.0448 39.1862 15.2114 41.9726 13.1932 44.1732V44.1732ZM27.1906 34.6549C26.5265 36.2826 25.1203 40.4622 24.2739 40.2279C23.5446 40.0325 23.102 36.8685 24.1306 33.7435C24.6514 32.1678 25.7582 30.293 26.4092 29.5637C27.464 28.3918 28.6097 28.0012 28.8963 28.4829C29.2349 29.1081 27.6072 33.6393 27.1906 34.6549ZM38.7401 40.1758C38.4536 40.3191 38.1932 40.4232 38.076 40.3452C37.9848 40.2931 38.1931 40.0978 38.1931 40.0978C38.1931 40.0978 39.6384 38.5483 40.2113 37.8322C40.5368 37.4156 40.9274 36.9339 41.3441 36.3868V36.5431C41.3442 38.418 39.5473 39.668 38.7401 40.1758ZM47.6462 38.1445C47.4378 37.9883 47.464 37.5065 48.167 35.9961C48.4406 35.3971 49.0654 34.3945 50.1462 33.444C50.2764 33.8346 50.3546 34.2121 50.3415 34.5638C50.3286 36.9075 48.6619 37.7799 47.6462 38.1445Z" fill="#CF649A"/>
</g>
</g>
<defs>
<clipPath id="clip0">
<rect width="66.6667" height="50" fill="white" transform="translate(0.53186 0.385559)"/>
</clipPath>
<clipPath id="clip1">
<rect width="66.6667" height="50" fill="white" transform="translate(0.510925 0.384155)"/>
</clipPath>
</defs>
</svg>
