<svg width="44" height="44" viewBox="0 0 44 44" fill="none" xmlns="http://www.w3.org/2000/svg">
<path d="M22 18.0786C21.485 18.0786 20.9751 18.18 20.4993 18.3771C20.0235 18.5742 19.5912 18.863 19.2271 19.2272C18.8629 19.5913 18.5741 20.0236 18.377 20.4994C18.1799 20.9752 18.0785 21.4851 18.0785 22.0001C18.0785 22.515 18.1799 23.025 18.377 23.5008C18.5741 23.9765 18.8629 24.4088 19.2271 24.773C19.5912 25.1371 20.0235 25.426 20.4993 25.6231C20.9751 25.8201 21.485 25.9216 22 25.9216C22.515 25.9216 23.0249 25.8201 23.5007 25.6231C23.9765 25.426 24.4088 25.1371 24.7729 24.773C25.1371 24.4088 25.4259 23.9765 25.623 23.5008C25.8201 23.025 25.9215 22.515 25.9215 22.0001C25.9215 21.4851 25.8201 20.9752 25.623 20.4994C25.4259 20.0236 25.1371 19.5913 24.7729 19.2272C24.4088 18.863 23.9765 18.5742 23.5007 18.3771C23.0249 18.18 22.515 18.0786 22 18.0786ZM11.0147 29.8009L10.1493 29.5809C3.69967 27.9511 0 25.1846 0 21.9927C0 18.8009 3.69967 16.0344 10.1493 14.4046L11.0147 14.1864L11.2585 15.0444C11.9119 17.2952 12.7476 19.489 13.7573 21.6041L13.9425 21.9946L13.7573 22.3851C12.7459 24.4994 11.9101 26.6933 11.2585 28.9447L11.0147 29.8009ZM9.74783 16.4084C4.8455 17.7852 1.837 19.8917 1.837 21.9927C1.837 24.0919 4.8455 26.1984 9.74783 27.5771C10.3474 25.6703 11.0713 23.8048 11.9148 21.9927C11.0703 20.1811 10.3464 18.3155 9.74783 16.4084ZM32.9853 29.8009L32.7415 28.9411C32.0888 26.6904 31.2524 24.4971 30.2408 22.3832L30.0557 21.9927L30.2408 21.6022C31.252 19.4876 32.0884 17.2937 32.7415 15.0426L32.9853 14.1846L33.8525 14.4027C40.3003 16.0326 44 18.7991 44 21.9927C44 25.1864 40.3003 27.9511 33.8525 29.5809L32.9853 29.8009ZM32.0852 21.9927C32.9652 23.8976 33.693 25.7694 34.2522 27.5771C39.1563 26.1984 42.163 24.0919 42.163 21.9927C42.163 19.8917 39.1545 17.7871 34.2522 16.4084C33.6534 18.3155 32.9295 20.181 32.0852 21.9927ZM9.735 16.3992L9.49117 15.5431C7.678 9.15207 8.228 4.5724 11 2.97374C13.7188 1.4044 18.084 3.2579 22.6582 7.95307L23.2815 8.5929L22.6582 9.23274C21.0328 10.9223 19.5478 12.7415 18.2178 14.6722L17.9703 15.0261L17.5395 15.0627C15.2 15.2472 12.8793 15.6212 10.6003 16.1811L9.735 16.3992ZM13.211 4.24424C12.7197 4.24424 12.2852 4.35057 11.9185 4.5614C10.0962 5.6119 9.7735 9.2639 11.0293 14.1919C12.983 13.7573 14.9629 13.4505 16.9565 13.2734C18.1068 11.6379 19.3635 10.0798 20.7185 8.6094C17.8585 5.82457 15.1507 4.24424 13.211 4.24424ZM30.7908 41.5746C30.789 41.5746 30.789 41.5746 30.7908 41.5746C28.1783 41.5746 24.8233 39.6074 21.3418 36.0324L20.7185 35.3926L21.3418 34.7527C22.9667 33.0626 24.4512 31.2428 25.7803 29.3114L26.0278 28.9576L26.4568 28.9209C28.7975 28.7375 31.1195 28.3641 33.3997 27.8044L34.265 27.5862L34.5107 28.4442C36.3202 34.8316 35.772 39.4131 33 41.0099C32.3267 41.3906 31.5643 41.5855 30.7908 41.5746ZM23.2815 35.3761C26.1415 38.1609 28.8493 39.7412 30.789 39.7412H30.7908C31.2803 39.7412 31.7167 39.6349 32.0815 39.4241C33.9038 38.3736 34.2283 34.7197 32.9707 29.7917C31.0165 30.227 29.0359 30.5338 27.0417 30.7102C25.8928 32.3469 24.6366 33.9056 23.2815 35.3761ZM34.265 16.3992L33.3997 16.1811C31.1198 15.6196 28.7977 15.2455 26.4568 15.0627L26.0278 15.0261L25.7803 14.6722C24.4518 12.7409 22.9674 10.9217 21.3418 9.23274L20.7185 8.5929L21.3418 7.95307C25.9142 3.25974 30.2775 1.40624 33 2.97374C35.772 4.5724 36.322 9.15207 34.5107 15.5412L34.265 16.3992ZM27.0417 13.2734C29.1353 13.4641 31.1245 13.7739 32.9707 14.1919C34.2283 9.2639 33.9038 5.6119 32.0815 4.5614C30.2702 3.51457 26.8657 5.11874 23.2815 8.6094C24.6359 10.0799 25.892 11.6379 27.0417 13.2734ZM13.211 41.5746C12.437 41.5858 11.6739 41.3909 11 41.0099C8.228 39.4131 7.678 34.8334 9.49117 28.4442L9.73317 27.5862L10.5985 27.8044C12.716 28.3379 15.0517 28.7137 17.5377 28.9209L17.9685 28.9576L18.2142 29.3114C19.5444 31.2425 21.0294 33.0623 22.6545 34.7527L23.2778 35.3926L22.6545 36.0324C19.1748 39.6074 15.8198 41.5746 13.211 41.5746ZM11.0293 29.7917C9.77167 34.7197 10.0962 38.3736 11.9185 39.4241C13.728 40.4562 17.1307 38.8649 20.7185 35.3761C19.364 33.9045 18.1073 32.3459 16.9565 30.7102C14.9628 30.5339 12.9829 30.2271 11.0293 29.7917ZM22 30.9431C20.4912 30.9431 18.9402 30.8771 17.3873 30.7487L16.9565 30.7121L16.709 30.3582C15.8307 29.0962 15.005 27.7983 14.234 26.4679C13.4653 25.1365 12.7522 23.7737 12.0963 22.3832L11.913 21.9927L12.0963 21.6022C12.7521 20.2117 13.4652 18.849 14.234 17.5176C14.993 16.2049 15.8272 14.8959 16.709 13.6272L16.9565 13.2734L17.3873 13.2367C20.4575 12.9764 23.5443 12.9764 26.6145 13.2367L27.0435 13.2734L27.2892 13.6272C29.0476 16.1519 30.5912 18.8195 31.9037 21.6022L32.0888 21.9927L31.9037 22.3832C30.5944 25.1676 29.0506 27.8355 27.2892 30.3582L27.0435 30.7121L26.6145 30.7487C25.0617 30.8771 23.5088 30.9431 22 30.9431ZM17.9722 28.9557C20.6855 29.1592 23.3145 29.1592 26.0297 28.9557C27.5455 26.7397 28.8914 24.412 30.0557 21.9927C28.8934 19.572 27.5469 17.2441 26.0278 15.0297C23.3465 14.8262 20.6535 14.8262 17.9722 15.0297C16.4525 17.2437 15.1059 19.5716 13.9443 21.9927C15.1099 24.4117 16.4563 26.7394 17.9722 28.9557Z" fill="#FED501"/>
</svg>
