<svg xmlns="http://www.w3.org/2000/svg" xmlns:xlink="http://www.w3.org/1999/xlink"><defs>
<linearGradient id="paint0_linear" x1="17.7124" y1="42.6257" x2="17.7124" y2="30.5833" gradientUnits="userSpaceOnUse">
<stop offset="0.387" stop-color="#D1D3D4" stop-opacity="0"/>
<stop offset="1" stop-color="#D1D3D4"/>
</linearGradient>
<linearGradient id="paint1_linear" x1="32.7674" y1="36.6194" x2="32.7674" y2="24.1018" gradientUnits="userSpaceOnUse">
<stop offset="0.387" stop-color="#D1D3D4" stop-opacity="0"/>
<stop offset="1" stop-color="#D1D3D4"/>
</linearGradient>
<linearGradient id="paint2_linear" x1="10.4658" y1="47.9969" x2="39.4057" y2="47.9969" gradientUnits="userSpaceOnUse">
<stop stop-color="#E8E7E5"/>
<stop offset="1" stop-color="white"/>
</linearGradient>
<linearGradient id="paint3_linear" x1="9.13416" y1="27.166" x2="40.5535" y2="27.166" gradientUnits="userSpaceOnUse">
<stop stop-color="#E8E7E5"/>
<stop offset="1" stop-color="white"/>
</linearGradient>

<linearGradient id="paint0_linear" x1="16.8141" y1="39.8273" x2="16.8141" y2="28.5755" gradientUnits="userSpaceOnUse">
<stop offset="0.387" stop-color="#D1D3D4" stop-opacity="0"/>
<stop offset="1" stop-color="#D1D3D4"/>
</linearGradient>
<linearGradient id="paint1_linear" x1="31.1054" y1="34.2152" x2="31.1054" y2="22.5195" gradientUnits="userSpaceOnUse">
<stop offset="0.387" stop-color="#D1D3D4" stop-opacity="0"/>
<stop offset="1" stop-color="#D1D3D4"/>
</linearGradient>
<linearGradient id="paint2_linear" x1="9.93494" y1="44.8458" x2="37.4069" y2="44.8458" gradientUnits="userSpaceOnUse">
<stop stop-color="#E8E7E5"/>
<stop offset="1" stop-color="white"/>
</linearGradient>
<linearGradient id="paint3_linear" x1="8.6709" y1="25.3825" x2="38.4966" y2="25.3825" gradientUnits="userSpaceOnUse">
<stop stop-color="#E8E7E5"/>
<stop offset="1" stop-color="white"/>
</linearGradient>
</defs><symbol id="icon-css" viewBox="0 0 50 70">
<path d="M45.3121 64.5339L24.9999 70L4.68729 64.5339L0 13.7825H50L45.3121 64.5339Z" fill="#2062AF"/>
<path d="M24.9998 17.8933V65.6403L25.0457 65.6529L41.4835 61.2291L45.2777 17.8933H24.9998V17.8933Z" fill="#3C9CD7"/>
<path d="M13.4716 6.32609V3.30538H17.8814V0H10.1643V9.34233H17.8814V6.32609H13.4716ZM25.8141 3.30538H28.8971V0H21.1793V3.30538C22.2118 4.33732 22.7503 4.83123 24.2437 6.3237C23.3707 6.3237 21.1793 6.32683 21.1793 6.32668V9.34233H28.8971V6.32609L25.8141 3.30538ZM36.7528 3.30538H39.8356V0H32.1175V3.30538C33.15 4.33732 33.6888 4.83123 35.1822 6.3237C34.3095 6.3237 32.1175 6.32683 32.1175 6.32668V9.34233H39.8358V6.32609L36.7528 3.30538V3.30538Z" fill="black"/>
<path d="M24.9816 30.5832L10.4435 36.6345L10.9256 42.6257L24.9816 36.6193L39.9336 30.2303L40.5535 24.1015L24.9816 30.5832Z" fill="white"/>
<path d="M10.4434 36.6344L10.9255 42.6256L24.9815 36.6192V30.5832L10.4434 36.6344V36.6344Z" fill="url(#paint0_linear)"/>
<path d="M40.5535 24.1016L24.9817 30.5832V36.6192L39.9336 30.2302L40.5535 24.1016Z" fill="url(#paint1_linear)"/>
<path d="M10.4658 36.6345L10.9481 42.6257L32.5153 42.6944L32.0329 50.6826L24.936 52.6794L18.1139 50.9578L17.7005 45.9996H11.3615L12.1884 55.5716L25.0049 59.359L37.752 55.6403L39.4058 36.6345H10.4658V36.6345Z" fill="url(#paint2_linear)"/>
<path opacity="0.05" d="M24.9817 36.6345H10.4435L10.9256 42.6257L24.9817 42.6705V36.6345ZM24.9817 52.6603L24.9128 52.6795L18.0915 50.958L17.6781 45.9998H11.3393L12.166 55.5718L24.9817 59.3591V52.6603Z" fill="black"/>
<path d="M9.13416 24.1016H40.5537L39.9338 30.2303H9.89201L9.13416 24.1016V24.1016Z" fill="url(#paint3_linear)"/>
<path opacity="0.05" d="M24.9817 24.1016H9.13416L9.89201 30.2303H24.9817V24.1016V24.1016Z" fill="black"/>

</symbol><symbol id="icon-html" viewBox="0 0 48 66">
<path d="M43.0138 60.2971L23.7318 65.4044L4.44954 60.2971L0 12.8777H47.4639L43.0138 60.2971Z" fill="#2062AF"/>
<path d="M23.7317 16.7186V61.3309L23.7753 61.3426L39.3794 57.2093L42.9811 16.7186H23.7317Z" fill="#3C9CD7"/>
<path d="M12.7884 5.91077V3.08837H16.9745V0H9.6488V8.72899H16.9745V5.91077H12.7884ZM24.5048 3.08837H27.4315V0H20.1051V3.08837C21.0853 4.05256 21.5964 4.51405 23.014 5.90854C22.1853 5.90854 20.1051 5.91146 20.1051 5.91132V8.72899H27.4315V5.91077L24.5048 3.08837ZM34.8886 3.08837H37.8151V0H30.4885V3.08837C31.4687 4.05256 31.9801 4.51405 33.3977 5.90854C32.5693 5.90854 30.4885 5.91146 30.4885 5.91132V8.72899H37.8153V5.91077L34.8886 3.08837Z" fill="black"/>
<path d="M23.7146 28.5754L9.91382 34.2293L10.3715 39.8272L23.7146 34.2151L37.9081 28.2456L38.4966 22.5192L23.7146 28.5754Z" fill="white"/>
<path d="M9.9137 34.2293L10.3714 39.8271L23.7144 34.2151V28.5753L9.9137 34.2293Z" fill="url(#paint0_linear)"/>
<path d="M38.4966 22.5193L23.7146 28.5753V34.2151L37.9081 28.2456L38.4966 22.5193Z" fill="url(#paint1_linear)"/>
<path d="M9.93494 34.2293L10.3927 39.8272L30.8661 39.8914L30.4081 47.3551L23.6712 49.2209L17.1951 47.6124L16.8027 42.9796H10.7852L11.5701 51.9232L23.7366 55.462L35.8371 51.9874L37.4071 34.2293H9.93494Z" fill="url(#paint2_linear)"/>
<path opacity="0.05" d="M23.7146 34.2293H9.91382L10.3715 39.8272L23.7146 39.8691V34.2293ZM23.7146 49.203L23.6492 49.221L17.1739 47.6125L16.7815 42.9798H10.7642L11.549 51.9234L23.7146 55.4621V49.203Z" fill="black"/>
<path d="M8.6709 22.5193H38.4968L37.9083 28.2457H9.39031L8.6709 22.5193Z" fill="url(#paint3_linear)"/>
<path opacity="0.05" d="M23.7147 22.5193H8.6709L9.39032 28.2457H23.7147V22.5193Z" fill="black"/>

</symbol><symbol id="icon-js" viewBox="0 0 51 71">
<path d="M50.5519 13.9749H0L4.73924 64.5289L25.2731 70.2577L45.807 64.5289L50.5519 13.9749Z" fill="#E6A329"/>
<path d="M25.2731 18.0937V65.9737L41.9102 61.3369L45.9578 18.0937H25.2731Z" fill="#F1BF22"/>
<path d="M38.5088 24.2957H12.9283L11.1465 43.2237L11.1835 43.1061H32.9157L32.2069 51.1141L25.2731 53.0769L18.2368 51.0833L17.8156 46.2365H11.4283L12.3391 55.9217L25.2731 59.5337L38.2128 55.9217L39.9946 36.9125H16.9303L17.2264 30.5789H33.2288L33.4679 34.2077H39.9121L38.5088 24.2957Z" fill="white"/>
<path d="M25.2789 24.2957H12.9283L11.1465 43.2237L11.1835 43.1061H25.2789V36.9321H17.8298L18.1259 30.5985H25.2789V24.2957ZM17.8298 46.2365H11.4283L12.3391 55.9161L25.2732 59.5225V53.0825L18.2369 51.0833L17.8298 46.2365Z" fill="#EBEBEB"/>
<path d="M20.3574 6.51849H15.8572V9.69649H23.5767V0.25769H20.3574V6.51849ZM34.6918 0.30809H26.8472V3.61209C27.8946 4.64249 28.4411 5.13809 29.9839 6.63049H26.8472V9.64329H34.6918V6.63609L31.5551 3.61769H34.6918V0.30809Z" fill="#231F20"/>
</symbol></svg>